<?xml version="1.0" encoding="utf-8"?>
<!-- Generator: Adobe Illustrator 25.0.1, SVG Export Plug-In . SVG Version: 6.00 Build 0)  -->
<svg version="1.0" id="katman_1" xmlns="http://www.w3.org/2000/svg" xmlns:xlink="http://www.w3.org/1999/xlink" x="0px" y="0px"
	 viewBox="0 0 800 600" style="enable-background:new 0 0 800 600;" xml:space="preserve">
<style type="text/css">
	.st0{fill-rule:evenodd;clip-rule:evenodd;}
</style>
<g>
	<path class="st0" d="M680.5,298.1c-5.2,0-9.4-4.2-9.5-9.4c0,0,0,0,0-0.1c0-5.2,4.2-9.5,9.5-9.5c5.2,0,9.4,4.2,9.5,9.4
		c0,0,0,0,0,0.1C690,293.8,685.7,298,680.5,298.1 M680.5,280c-4.7,0-8.5,3.7-8.5,8.4c0,0.1,0,0.1,0,0.2c0,4.7,3.6,8.5,8.5,8.5
		c4.7,0,8.5-3.7,8.5-8.4c0-0.1,0-0.1,0-0.2c0.1-4.6-3.6-8.5-8.3-8.5C680.7,280,680.6,280,680.5,280 M682.6,289.5l2.7,3.8h-2.3
		l-2.4-3.4h-2.1v3.4h-1.9v-9.9h4.4c2.3,0,3.8,1.2,3.8,3.2C684.9,288.1,684,289.1,682.6,289.5 M681,285h-2.5v3.1h2.5
		c1.2,0,2-0.6,2-1.6C683,285.6,682.3,285,681,285 M562.6,252.5c-5.3,0-9.6,4.3-9.7,9.6c0,5.3,4.3,9.6,9.6,9.7l0,0
		c5.3,0,9.7-4.3,9.7-9.7C572.3,256.8,567.9,252.5,562.6,252.5L562.6,252.5 M569.3,279.2h-13.4c-0.5,0-1,0.4-1,1v58.7
		c0,0.6,0.4,1,1,1h13.5c0.5,0,1-0.4,1-1v-58.7C570.3,279.6,569.8,279.2,569.3,279.2 M599.2,279.2v-1.8c0-5.5,2.1-7.9,6.8-7.9
		c2.8,0,5,0.6,7.6,1.4c0.5,0.2,1.1-0.1,1.2-0.6c0-0.1,0.1-0.2,0.1-0.3v-11.3c0-0.4-0.3-0.8-0.7-0.9c-3.6-1.1-7.4-1.7-11.2-1.6
		c-12.4,0-19,7-19,20.2v2.8h-6.5c-0.5,0-1,0.4-1,1v11.6c0,0.5,0.4,1,1,1h6.5v46.1c0,0.5,0.4,1,1,1h13.5c0.5,0,1-0.4,1-1v-46.1H612
		l19.2,46.1c-2.2,4.8-4.3,5.8-7.3,5.8c-2.4,0-4.9-0.7-7.4-2.1c-0.2-0.1-0.5-0.2-0.8-0.1c-0.3,0.1-0.5,0.3-0.6,0.5l-4.6,10
		c-0.2,0.5,0,1,0.4,1.3c4.8,2.6,9.1,3.7,14.4,3.7c9.9,0,15.4-4.6,20.3-17.1l23.3-60.3c0.2-0.5,0-1.1-0.5-1.3c-0.1,0-0.2-0.1-0.4-0.1
		h-14c-0.4,0-0.8,0.3-0.9,0.7l-14.4,41l-15.7-41c-0.1-0.4-0.5-0.6-0.9-0.6H599.2 M547.6,279.2h-14.8V264c0-0.5-0.4-1-1-1
		c0,0,0,0,0,0h-13.5c-0.5,0-1,0.4-1,1v15.1h-6.5c-0.5,0-1,0.4-1,1c0,0,0,0,0,0v11.6c0,0.5,0.4,1,1,1h6.5v29.9
		c0,12.1,6,18.2,17.9,18.2c4.8,0,8.8-1,12.6-3.1c0.3-0.2,0.5-0.5,0.5-0.9v-11c0-0.5-0.4-1-1-1c-0.2,0-0.3,0-0.5,0.1
		c-2.6,1.3-5.1,1.9-7.9,1.9c-4.3,0-6.2-2-6.2-6.3v-27.8h14.8c0.5,0,1-0.4,1-1c0,0,0,0,0,0v-11.6
		C548.6,279.6,548.2,279.2,547.6,279.2C547.6,279.2,547.6,279.2,547.6,279.2 M476.7,277.9c-18.1,0-32.3,14-32.3,31.8
		c0,17.6,14.1,31.4,32.1,31.4c18.2,0,32.4-13.9,32.4-31.7C508.9,291.8,494.7,277.9,476.7,277.9 M476.7,327.5
		c-9.6,0-16.9-7.7-16.9-18c0-10.3,7-17.8,16.7-17.8c9.7,0,17,7.7,17,18C493.5,320.1,486.4,327.5,476.7,327.5 M411.8,277.9
		c-7.6,0-13.8,3-18.9,9.1v-6.9c0-0.5-0.4-1-1-1h-13.5c-0.5,0-1,0.4-1,1v76.5c0,0.5,0.4,1,1,1h13.5c0.5,0,1-0.4,1-1v-24.1
		c5.1,5.7,11.3,8.6,18.9,8.6c14.1,0,28.3-10.8,28.3-31.6S425.9,277.9,411.8,277.9 M424.5,309.5c0,10.5-6.5,17.9-15.8,17.9
		c-9.2,0-16.1-7.7-16.1-17.9c0-10.2,6.9-17.9,16.1-17.9C417.8,291.6,424.5,299.1,424.5,309.5 M346.5,292.8
		c-15-3.6-17.7-6.1-17.7-11.4c0-5,4.7-8.4,11.7-8.4c6.8,0,13.5,2.5,20.5,7.8c0.4,0.3,1.1,0.2,1.4-0.2c0,0,0,0,0,0l7.3-10.3
		c0.3-0.4,0.2-1-0.2-1.3c-8.4-6.7-17.8-10-28.9-10c-16.2,0-27.6,9.7-27.6,23.7c0,14.9,9.8,20.2,26.7,24.3
		c14.4,3.3,16.8,6.1,16.8,11.1c0,5.5-4.9,8.9-12.8,8.9c-8.8,0-15.9-3-23.9-9.9c-0.2-0.2-0.5-0.3-0.7-0.2c-0.3,0-0.5,0.1-0.7,0.4
		l-8.2,9.8c-0.3,0.4-0.3,1,0.1,1.4c9.1,8.2,20.9,12.7,33.1,12.7c17.5,0,28.8-9.6,28.8-24.3C372.2,304.1,364.8,297.2,346.5,292.8
		 M196.5,213c-48.1,0-87,39-87,87s39,87,87,87s87-39,87-87S244.5,213,196.5,213 M236.4,338.5c-1.6,2.6-4.9,3.4-7.4,1.8c0,0,0,0,0,0
		c-20.4-12.5-46.1-15.3-76.4-8.4c-2.9,0.7-5.8-1.2-6.5-4.1s1.2-5.8,4.1-6.5l0,0c33.1-7.6,61.6-4.3,84.5,9.7
		C237.1,332.6,237.9,335.9,236.4,338.5 M247,314.8c-2,3.2-6.1,4.2-9.3,2.2c-23.4-14.4-59-18.5-86.7-10.1c-3.7,0.9-7.3-1.4-8.2-5
		c-0.8-3.3,1-6.7,4.2-7.9c31.6-9.6,70.9-4.9,97.8,11.6C248,307.4,249,311.6,247,314.8C247,314.8,247,314.8,247,314.8 M248,290.1
		c-28.1-16.7-74.3-18.2-101.1-10.1c-4.3,1.4-8.9-1-10.2-5.3s1-8.9,5.3-10.2c0.1,0,0.1,0,0.2-0.1c30.7-9.3,81.8-7.5,114.1,11.6
		c3.9,2.3,5.1,7.3,2.8,11.2C256.8,291.1,251.8,292.4,248,290.1"/>
</g>
</svg>
